<?xml version="1.0" encoding="utf-8"?>
<!-- Generator: Adobe Illustrator 24.0.1, SVG Export Plug-In . SVG Version: 6.00 Build 0)  -->
<svg version="1.1" id="图层_1" xmlns="http://www.w3.org/2000/svg" xmlns:xlink="http://www.w3.org/1999/xlink" x="0px" y="0px"
	 viewBox="0 0 40 30" style="enable-background:new 0 0 40 30;" xml:space="preserve">
<style type="text/css">
	.st0{fill:#FD746C;}
</style>
<path class="st0" d="M3.4,16.4l15.8,13.3c0.5,0.4,1.3,0.4,1.8,0l15.8-13.3c4.5-3.8,4.5-9.9,0-13.6c-2.1-1.8-5-2.8-8-2.8
	c-3,0-5.9,1-8,2.8L20,3.2l-0.5-0.4c-4.5-3.8-11.7-3.8-16.2,0c0,0,0,0,0,0C-1.1,6.6-1.1,12.7,3.4,16.4C3.4,16.4,3.4,16.4,3.4,16.4z
	 M4.1,4.2C6,2.5,8.7,1.5,11.4,1.5c2.6-0.1,5,0.8,6.9,2.2l1,0.8C19.8,5,20,5.5,20,6v21.8c0,0.1-0.1,0.3-0.3,0.3c-0.1,0-0.2,0-0.2-0.1
	L4.7,15.5C1,12.5,0.7,7.5,4.1,4.2z"/>
</svg>
