<svg id="图层_1" data-name="图层 1" xmlns="http://www.w3.org/2000/svg" xmlns:xlink="http://www.w3.org/1999/xlink" viewBox="0 0 100 100"><defs><style>.cls-1,.cls-2,.cls-4,.cls-5{fill:none;}.cls-2{stroke:#000;}.cls-2,.cls-5{stroke-miterlimit:10;}.cls-3{clip-path:url(#clip-path);}.cls-4,.cls-5{stroke:#fd746c;}.cls-4{stroke-linecap:round;stroke-linejoin:bevel;}</style><clipPath id="clip-path"><path id="SVGID" class="cls-1" d="M73.36,40.44A22.48,22.48,0,0,0,55.25,14.15,22.79,22.79,0,0,0,28.57,32,22.06,22.06,0,0,0,29,42.12a19.41,19.41,0,0,0,.8,2.37A22.9,22.9,0,0,0,59.36,57.11a22.55,22.55,0,0,0,14-16.68Z"/></clipPath></defs><title>200228title</title><path class="cls-2" d="M10.5,84.14,23,71.18H11.11V67.31H29.35v3.88L17.08,83.88H30.34l-.56,3.87H10.5Z"/><path class="cls-2" d="M52.55,79.92c0-3.52,0-7.19.14-9.46h0c-1,3.78-3,9.77-5.42,17.29H42.81c-1.9-6.59-4.09-13.41-5.18-17.28h0c.15,2.37.34,6.35.34,9.83v7.45H33.41V67.31h7.27c2.08,6.33,4,11.89,4.61,14.68h0c.88-3.23,2.75-8.6,4.77-14.68H57.4V87.75H52.55Z"/><path class="cls-2" d="M79.43,79.12H67.86v4.66H80.73l-.58,4H62.82V67.31H80.06v4H67.86v3.87H79.43Z"/><path class="cls-2" d="M89.5,67.31V87.75h-5V67.31Z"/><g id="putline"><g class="cls-3"><path class="cls-4" d="M14.87,49.63h0c8.72-2.86,13.82-5,21.27-10.28"/><path class="cls-4" d="M62.93,36.33c8.38,5.62,15,8,24.82,10.53"/><path class="cls-4" d="M39.26,37.31A88.82,88.82,0,0,0,51,27.32"/><line class="cls-4" x1="48.97" y1="42.21" x2="60.27" y2="34.48"/><line class="cls-4" x1="50.99" y1="27.32" x2="48.97" y2="42.21"/></g><path class="cls-5" d="M73.36,40.44A22.48,22.48,0,0,0,55.25,14.15,22.79,22.79,0,0,0,28.57,32,22.06,22.06,0,0,0,29,42.12a19.41,19.41,0,0,0,.8,2.37A22.9,22.9,0,0,0,59.36,57.11a22.55,22.55,0,0,0,14-16.68Z"/></g></svg>