<svg id="图层_1" data-name="图层 1" xmlns="http://www.w3.org/2000/svg" viewBox="0 0 20 20"><title>topbutton</title><path d="M4.48,12.27H2.64v-.5H6.91v.5H5.06v5.08H4.48Z" transform="translate(-2.64 -2.57)"/><path d="M12.34,14.52c0,1.53-.83,2.91-2.57,2.91a2.57,2.57,0,0,1-2.52-2.87,2.58,2.58,0,0,1,2.58-2.87A2.54,2.54,0,0,1,12.34,14.52Zm-4.49,0c0,1.25.67,2.39,1.94,2.39s2-1.13,2-2.39-.64-2.34-1.94-2.34S7.85,13.3,7.85,14.53Z" transform="translate(-2.64 -2.57)"/><path d="M13.54,11.77h2.05a1.57,1.57,0,0,1,1.77,1.58A1.61,1.61,0,0,1,15.54,15H14.12v2.37h-.58Zm.58,2.71h1.42c.84,0,1.22-.43,1.22-1.11a1.06,1.06,0,0,0-1.19-1.1H14.12Z" transform="translate(-2.64 -2.57)"/><polygon points="7.31 0 0.31 6 7.31 6 14.31 6 7.31 0"/></svg>