<?xml version="1.0" standalone="no"?>
<!DOCTYPE svg PUBLIC "-//W3C//DTD SVG 20010904//EN"
 "http://www.w3.org/TR/2001/REC-SVG-20010904/DTD/svg10.dtd">
<svg version="1.0" xmlns="http://www.w3.org/2000/svg"
 width="700.000000pt" height="700.000000pt" viewBox="0 0 700.000000 700.000000"
 preserveAspectRatio="xMidYMid meet">
<metadata>
Created by potrace 1.11, written by Peter Selinger 2001-2013
</metadata>
<g transform="translate(0.000000,700.000000) scale(0.100000,-0.100000)"
fill="#000000" stroke="none">
<path d="M3299 6586 c-2 -2 -42 -7 -89 -11 -115 -9 -141 -12 -240 -31 -47 -9
-94 -18 -105 -19 -24 -4 -74 -16 -180 -45 -905 -245 -1663 -907 -2028 -1770
-52 -124 -125 -335 -141 -410 -3 -14 -15 -62 -26 -107 -10 -45 -22 -94 -25
-110 -2 -15 -7 -39 -10 -53 -3 -14 -8 -50 -11 -80 -3 -30 -7 -57 -9 -60 -25
-41 -25 -748 0 -790 2 -3 6 -25 9 -50 3 -25 9 -58 12 -75 89 -492 268 -908
566 -1320 4 -5 52 -64 107 -130 419 -506 992 -865 1636 -1024 163 -40 295 -62
475 -78 109 -10 409 -10 525 0 108 10 119 11 250 32 17 3 41 7 55 9 72 11 239
55 380 98 171 53 451 177 587 260 34 21 65 38 67 38 20 0 340 236 436 321 377
333 680 773 852 1233 16 45 31 86 32 91 2 6 6 17 9 25 10 26 63 210 72 250 27
129 55 279 60 330 4 36 9 79 12 95 9 64 11 484 2 555 -14 121 -31 253 -35 275
-3 11 -7 36 -10 55 -3 19 -8 38 -10 41 -2 4 -6 24 -10 45 -12 76 -85 316 -135
446 -29 73 -87 201 -129 283 -72 142 -107 201 -189 323 -20 29 -40 60 -46 69
-5 9 -17 26 -27 37 -9 12 -45 57 -79 101 -201 254 -483 505 -771 685 -301 188
-687 343 -1013 406 -11 2 -31 6 -45 9 -14 3 -41 8 -60 11 -19 3 -42 7 -50 9
-8 2 -46 7 -85 11 -38 3 -79 9 -90 11 -24 6 -490 14 -496 9z m491 -90 c30 -4
71 -9 90 -12 19 -2 66 -9 104 -15 65 -9 205 -39 291 -62 22 -6 42 -11 45 -12
199 -53 460 -163 670 -283 63 -36 149 -88 190 -116 206 -139 445 -352 601
-537 93 -110 102 -120 129 -159 13 -19 27 -37 30 -40 13 -10 138 -207 179
-280 117 -210 219 -455 276 -666 15 -54 29 -110 31 -124 3 -14 7 -33 10 -42 3
-9 7 -27 9 -40 3 -13 9 -45 15 -73 5 -27 12 -68 15 -90 3 -22 7 -50 9 -63 10
-50 20 -236 20 -382 1 -143 -10 -356 -19 -369 -1 -3 -6 -31 -9 -61 -5 -48 -13
-93 -20 -125 -2 -5 -9 -38 -16 -73 -7 -34 -17 -62 -21 -62 -5 0 -118 55 -252
123 -334 170 -581 314 -877 510 -160 107 -185 119 -216 105 -19 -9 -36 -2
-111 45 -148 94 -158 103 -155 140 4 39 -24 69 -64 70 -14 0 -45 -14 -67 -30
-23 -16 -94 -64 -157 -108 -63 -44 -170 -118 -237 -165 -67 -47 -220 -152
-339 -235 -119 -82 -305 -211 -413 -287 -108 -75 -199 -135 -202 -133 -3 2 2
62 12 133 10 71 20 149 24 173 9 71 14 112 19 149 3 19 8 55 11 80 5 43 12 96
20 150 2 14 6 48 10 75 3 28 7 59 9 70 2 11 7 45 10 76 4 31 8 65 10 75 2 11
6 39 10 64 18 146 38 299 42 325 5 37 12 89 18 135 55 409 54 382 21 408 -15
12 -36 22 -47 22 -12 0 -98 -77 -221 -198 -111 -109 -231 -225 -267 -258 -35
-32 -79 -72 -96 -89 -17 -16 -45 -41 -60 -55 -16 -14 -63 -54 -104 -89 -41
-36 -79 -70 -85 -75 -5 -6 -30 -27 -55 -47 -25 -20 -55 -45 -67 -55 -96 -83
-352 -285 -511 -404 -150 -112 -168 -131 -160 -178 3 -21 -54 -67 -220 -176
l-71 -47 -29 21 c-34 25 -50 20 -132 -39 -206 -150 -752 -501 -779 -501 -11 0
-18 22 -61 195 -65 265 -88 473 -84 760 1 99 5 203 8 230 4 28 9 70 12 95 9
81 23 168 29 190 2 8 7 29 9 45 13 76 28 131 78 300 56 190 190 487 288 640
11 17 27 44 36 60 31 55 155 226 232 319 87 105 279 299 367 371 33 28 66 55
73 62 7 7 17 13 20 13 4 0 19 11 33 24 44 41 210 151 329 218 217 123 416 208
641 273 122 35 319 79 404 90 28 4 61 8 74 10 12 2 60 7 105 11 44 3 83 8 84
9 6 6 414 -3 472 -9z"/>
</g>
</svg>
