<svg xmlns="http://www.w3.org/2000/svg" xmlns:xlink="http://www.w3.org/1999/xlink" viewBox="0 0 256 256"><defs><style>.cls-1,.cls-4{fill:none;stroke:#fd746c;}.cls-1{stroke-miterlimit:10;stroke-width:3px;}.cls-2{clip-path:url(#clip-path);}.cls-3{fill:#fff;}.cls-4{stroke-linecap:round;stroke-linejoin:bevel;stroke-width:5px;}</style><clipPath id="clip-path"><path class="cls-1" d="M237.52,148.92a111.5,111.5,0,1,0-217.1,8.35A108.18,108.18,0,0,0,24.33,169a111.5,111.5,0,0,0,213.19-20.12Z"/></clipPath></defs><title>favicon</title><g id="putline"><g class="cls-2"><path class="cls-3" d="M307.86,180.79a183,183,0,0,1-349.93,33,177,177,0,0,1-6.41-19.32A439.84,439.84,0,0,0,70.78,133.38,437.59,437.59,0,0,0,128.1,83.82l-9.84,73.88,55.24-38.37A440.14,440.14,0,0,0,307.86,180.79Z"/><path class="cls-4" d="M-48.5,194.5h0c42.64-14.17,67.57-24.64,104-51"/><path class="cls-4" d="M186.5,128.5c41,27.92,73.43,39.52,121.36,52.29"/><path class="cls-4" d="M70.78,133.38A437.59,437.59,0,0,0,128.1,83.82"/><line class="cls-4" x1="118.26" y1="157.7" x2="173.5" y2="119.33"/><line class="cls-4" x1="128.1" y1="83.82" x2="118.26" y2="157.7"/></g><path class="cls-1" d="M237.52,148.92a111.5,111.5,0,1,0-217.1,8.35A108.18,108.18,0,0,0,24.33,169a111.5,111.5,0,0,0,213.19-20.12Z"/></g></svg>