<?xml version="1.0" standalone="no"?>
<!DOCTYPE svg PUBLIC "-//W3C//DTD SVG 20010904//EN"
 "http://www.w3.org/TR/2001/REC-SVG-20010904/DTD/svg10.dtd">
<svg version="1.0" xmlns="http://www.w3.org/2000/svg"
 width="1067.000000pt" height="1067.000000pt" viewBox="0 0 1067.000000 1067.000000"
 preserveAspectRatio="xMidYMid meet">
<metadata>
Created by potrace 1.11, written by Peter Selinger 2001-2013
</metadata>
<g transform="translate(0.000000,1067.000000) scale(0.100000,-0.100000)"
fill="#000000" stroke="none">
<path d="M5218 10045 c-2 -2 -61 -5 -133 -9 -146 -7 -234 -13 -285 -21 -19 -3
-54 -8 -77 -10 -61 -6 -272 -41 -303 -50 -8 -3 -33 -7 -55 -11 -22 -3 -110
-24 -195 -45 -580 -149 -1120 -403 -1610 -757 -58 -42 -110 -81 -116 -87 -6
-5 -26 -21 -44 -35 -37 -28 -33 -25 -161 -135 -115 -98 -329 -311 -428 -425
-41 -47 -77 -87 -81 -90 -24 -19 -221 -284 -314 -425 -104 -156 -143 -219
-236 -390 -247 -452 -427 -1001 -505 -1540 -4 -22 -8 -50 -10 -63 -2 -13 -7
-53 -10 -90 -4 -37 -8 -78 -11 -92 -8 -54 -17 -264 -17 -430 0 -229 8 -377 34
-580 6 -47 13 -101 15 -120 2 -19 7 -46 10 -60 3 -14 8 -38 10 -55 2 -16 8
-52 14 -80 6 -27 12 -60 15 -73 10 -57 69 -286 96 -382 101 -346 277 -746 477
-1080 38 -64 161 -253 185 -285 4 -5 46 -62 93 -125 194 -258 372 -450 654
-705 61 -55 228 -189 320 -257 80 -59 323 -219 385 -254 11 -6 49 -28 85 -49
135 -78 487 -245 590 -280 3 -1 19 -7 35 -14 51 -21 347 -120 410 -136 71 -19
212 -55 238 -60 10 -2 26 -6 35 -9 9 -3 33 -8 52 -11 19 -3 42 -8 50 -10 8 -2
31 -6 50 -9 19 -3 46 -8 60 -11 13 -2 42 -7 65 -10 22 -3 58 -8 80 -12 51 -8
76 -11 150 -18 33 -3 80 -7 105 -10 234 -24 681 -19 900 10 14 2 63 8 110 14
131 18 222 33 431 76 72 15 321 86 443 126 593 198 1141 512 1623 933 85 74
325 313 403 401 91 103 107 122 191 230 287 369 497 737 674 1179 37 93 68
174 70 180 1 6 4 18 8 26 26 72 120 407 133 474 2 12 8 41 14 66 17 79 44 233
55 319 4 30 8 62 10 71 6 31 16 145 30 335 6 81 6 403 1 490 -9 133 -17 230
-21 260 -2 17 -7 57 -10 89 -3 32 -7 62 -9 65 -2 3 -7 35 -10 70 -4 36 -9 67
-11 70 -3 6 -13 62 -20 116 -2 11 -13 61 -25 110 -12 50 -24 101 -26 115 -21
104 -118 409 -191 595 -49 126 -215 475 -275 581 -275 480 -620 901 -1030
1256 -80 70 -251 205 -313 248 -20 14 -42 30 -48 35 -14 12 -126 86 -222 147
-224 142 -499 280 -759 382 -192 76 -473 166 -596 191 -8 2 -42 10 -75 18 -68
18 -297 62 -365 71 -159 21 -292 35 -405 42 -95 5 -403 12 -407 9z m487 -138
c17 -3 57 -8 90 -12 133 -13 162 -17 210 -25 28 -5 68 -12 90 -15 22 -3 47 -7
55 -10 8 -2 33 -6 55 -10 22 -3 77 -14 122 -25 46 -11 93 -22 105 -24 91 -19
354 -100 483 -148 533 -201 996 -475 1416 -837 182 -156 406 -385 535 -546 27
-33 51 -62 54 -65 11 -10 148 -197 211 -290 216 -316 421 -731 547 -1105 38
-113 98 -323 109 -379 2 -11 10 -45 17 -75 16 -63 42 -195 51 -256 5 -35 9
-62 21 -128 2 -10 6 -53 9 -95 4 -42 8 -79 10 -82 8 -12 18 -261 19 -435 0
-169 -9 -404 -18 -452 -2 -10 -7 -49 -11 -88 -4 -38 -9 -77 -10 -86 -2 -9 -6
-40 -10 -70 -3 -30 -8 -61 -10 -69 -2 -8 -7 -31 -10 -50 -21 -127 -51 -250
-61 -250 -2 0 -12 4 -22 10 -9 5 -134 67 -277 138 -284 140 -365 183 -589 310
-311 175 -674 399 -963 594 -136 92 -161 100 -212 74 -26 -14 -31 -13 -62 9
-19 13 -100 66 -181 119 -80 52 -149 100 -153 106 -3 5 -2 17 3 25 14 26 1 73
-28 105 -47 50 -87 43 -200 -36 -52 -36 -113 -78 -135 -92 -22 -15 -42 -29
-45 -32 -3 -3 -25 -19 -50 -36 -93 -63 -209 -143 -634 -439 -143 -99 -314
-218 -382 -265 -68 -47 -149 -103 -181 -126 -73 -51 -297 -206 -383 -265 -36
-25 -102 -71 -147 -102 -72 -50 -81 -54 -78 -35 3 22 12 86 20 153 2 17 9 64
14 105 6 41 13 95 16 120 3 25 8 63 11 85 3 22 7 51 9 65 2 14 6 43 9 65 3 22
8 60 11 85 4 25 8 56 10 70 2 14 6 50 10 80 3 30 10 80 15 110 5 30 12 82 16
115 3 33 8 69 9 80 2 11 6 47 10 80 4 33 9 63 11 66 1 3 6 37 9 75 4 38 8 71
10 74 2 3 6 34 10 70 3 36 10 90 15 120 9 58 17 114 35 265 4 28 8 61 10 75 2
14 7 49 10 79 4 30 8 61 10 70 3 18 12 85 21 159 3 26 9 72 14 102 5 30 12 80
15 110 4 30 15 118 26 194 26 189 25 201 -10 237 -24 23 -38 29 -73 29 -43 0
-44 -1 -303 -258 -263 -260 -409 -398 -669 -633 -27 -24 -57 -51 -66 -59 -9
-8 -47 -42 -85 -75 -39 -33 -79 -68 -90 -78 -43 -40 -376 -317 -470 -392 -55
-44 -102 -83 -105 -86 -11 -13 -456 -352 -549 -419 -154 -109 -167 -128 -150
-214 4 -21 -17 -37 -304 -233 l-138 -95 -24 26 c-22 24 -50 32 -99 26 -10 -1
-51 -25 -90 -54 -100 -74 -407 -286 -561 -387 -129 -86 -483 -309 -489 -309
-2 0 -41 -22 -87 -50 -46 -27 -86 -46 -90 -42 -8 8 -62 196 -95 333 -26 109
-31 130 -44 209 -6 30 -12 64 -14 75 -2 11 -7 43 -11 70 -5 28 -9 52 -10 55
-1 3 -5 39 -9 80 -5 41 -10 82 -11 91 -27 142 -26 743 0 949 2 19 7 60 10 90
6 57 9 77 25 170 5 30 12 73 16 95 3 22 7 42 9 45 2 3 6 26 10 50 15 106 99
407 167 600 194 552 501 1075 887 1510 109 124 331 342 446 440 55 47 102 87
105 90 45 48 389 286 560 387 121 72 411 219 520 263 30 12 64 26 75 31 88 38
291 108 470 162 74 23 247 66 291 73 22 3 42 8 45 10 3 2 19 5 35 8 16 3 70
12 119 20 122 21 314 45 404 51 41 3 76 7 78 9 6 6 621 -1 658 -7z"/>
</g>
</svg>
