<svg xmlns="http://www.w3.org/2000/svg" xmlns:xlink="http://www.w3.org/1999/xlink" viewBox="0 0 256 256"><defs><style>.cls-1,.cls-5,.cls-6{fill:none;}.cls-2{clip-path:url(#clip-path);}.cls-3{fill:url(#未命名的渐变_27);}.cls-4{fill:#fd746c;}.cls-5{stroke:#2c3e50;}.cls-5,.cls-6{stroke-linecap:round;stroke-linejoin:bevel;stroke-width:3px;}.cls-6{stroke:#fcc;}</style><clipPath id="clip-path"><path class="cls-1" d="M237.52,148.92a111.5,111.5,0,1,0-217.1,8.35A108.18,108.18,0,0,0,24.33,169a111.5,111.5,0,0,0,213.19-20.12Z"/></clipPath><linearGradient id="未命名的渐变_27" x1="129.69" y1="329.47" x2="129.69" y2="83.82" gradientUnits="userSpaceOnUse"><stop offset="0" stop-color="#2c3e50"/><stop offset="0.25" stop-color="#2e3f50"/><stop offset="0.4" stop-color="#374151"/><stop offset="0.51" stop-color="#454453"/><stop offset="0.62" stop-color="#584956"/><stop offset="0.71" stop-color="#725059"/><stop offset="0.8" stop-color="#92585e"/><stop offset="0.88" stop-color="#b76263"/><stop offset="0.95" stop-color="#e26d68"/><stop offset="0.99" stop-color="#fd746c"/></linearGradient></defs><title>Logo</title><g id="putline"><g class="cls-2"><path class="cls-3" d="M307.86,180.79a183,183,0,0,1-349.93,33,177,177,0,0,1-6.41-19.32A439.84,439.84,0,0,0,70.78,133.38,437.59,437.59,0,0,0,128.1,83.82l-9.84,73.88,55.24-38.37A440.14,440.14,0,0,0,307.86,180.79Z"/><path class="cls-4" d="M298.26,79.1a183,183,0,0,1,9.6,101.69A440.14,440.14,0,0,1,173.5,119.33L118.26,157.7l9.84-73.88a437.59,437.59,0,0,1-57.32,49.56A439.84,439.84,0,0,1-48.48,194.5,183,183,0,0,1,298.26,79.1Z"/><path class="cls-5" d="M-48.5,194.5h0A439.84,439.84,0,0,0,70.78,133.38"/><path class="cls-5" d="M173.5,119.33a440.14,440.14,0,0,0,134.36,61.46"/><path class="cls-6" d="M70.78,133.38A437.59,437.59,0,0,0,128.1,83.82"/><line class="cls-6" x1="118.26" y1="157.7" x2="173.5" y2="119.33"/><line class="cls-6" x1="128.1" y1="83.82" x2="118.26" y2="157.7"/></g></g></svg>